<svg xmlns="http://www.w3.org/2000/svg" width="128" height="128" viewBox="0 0 128 128">
  <defs>
    <linearGradient id="grad" x1="0%" y1="0%" x2="100%" y2="100%">
      <stop offset="0%" style="stop-color:#6366f1;stop-opacity:1" />
      <stop offset="100%" style="stop-color:#8b5cf6;stop-opacity:1" />
    </linearGradient>
  </defs>
  <!-- Background circle -->
  <circle cx="64" cy="64" r="60" fill="url(#grad)"/>
  <!-- Lucide Axe icon - scaled and centered -->
  <g transform="translate(24, 24) scale(3.33)" stroke="#fff" stroke-width="2.5" fill="none" stroke-linecap="round" stroke-linejoin="round">
    <path d="m14 12-8.381 8.38a1 1 0 0 1-3.001-3L11 9"/>
    <path d="M15 15.5a.5.5 0 0 0 .5.5A6.5 6.5 0 0 0 22 9.5a.5.5 0 0 0-.5-.5h-1.672a2 2 0 0 1-1.414-.586l-5.062-5.062a1.205 1.205 0 0 0-1.704 0L9.352 5.648a1.205 1.205 0 0 0 0 1.704l5.062 5.062A2 2 0 0 1 15 13.828z"/>
  </g>
</svg>
